<?xml version="1.0" standalone="no"?>
<!DOCTYPE svg PUBLIC "-//W3C//DTD SVG 20010904//EN"
 "http://www.w3.org/TR/2001/REC-SVG-20010904/DTD/svg10.dtd">
<svg version="1.0" xmlns="http://www.w3.org/2000/svg"
 viewBox="0 0 2600.000000 2600.000000"
 preserveAspectRatio="xMidYMid meet">
<metadata>
Created by potrace 1.15, written by Peter Selinger 2001-2017
</metadata>
<g transform="translate(0.000000,2600.000000) scale(0.100000,-0.100000)"
fill="#ffffff" stroke="none">
<path d="M14965 23543 c-927 -124 -1703 -852 -1889 -1773 -54 -268 -56 -515
-7 -810 37 -216 45 -315 44 -550 0 -322 -33 -596 -114 -945 -249 -1081 -948
-2426 -1958 -3770 -196 -261 -507 -649 -600 -749 l-36 -38 185 6 c102 3 319 9
482 12 l298 7 34 -74 c198 -433 438 -1811 689 -3959 20 -171 21 -195 8 -199
-23 -5 -445 18 -631 35 -332 30 -527 67 -630 119 -111 56 -129 207 -95 770 26
420 20 806 -15 995 -5 24 -6 48 -4 52 2 3 79 46 170 95 92 48 168 93 171 99 8
22 -193 477 -354 799 -313 626 -646 1155 -1003 1595 -112 138 -431 460 -550
554 -443 352 -899 486 -1296 382 l-49 -13 45 -12 c460 -123 845 -310 1058
-515 110 -105 165 -180 223 -301 70 -145 90 -236 96 -436 10 -302 -12 -421
-226 -1259 -137 -539 -193 -826 -220 -1140 -17 -197 -17 -620 0 -620 6 0 86
45 177 100 l167 100 14 -37 c46 -120 205 -395 396 -683 376 -567 760 -1002
981 -1111 l62 -31 263 -2 c223 -2 283 -6 388 -25 169 -31 336 -74 334 -86 -4
-31 -578 -342 -854 -464 -562 -246 -1155 -412 -1689 -472 -151 -17 -546 -18
-680 -1 -155 20 -322 58 -465 106 -55 19 58 -35 240 -114 415 -181 836 -341
1355 -515 l305 -103 -2 -91 c-5 -245 -116 -1031 -229 -1621 -347 -1815 -913
-3344 -1587 -4284 -44 -61 -82 -117 -84 -123 -4 -10 585 -13 2927 -13 l2933 0
-6 28 c-32 161 -41 282 -42 552 0 228 4 308 19 400 59 371 180 645 383 860 41
44 77 79 79 77 2 -1 35 -439 74 -971 39 -533 75 -977 80 -987 16 -29 52 -49
88 -49 43 0 92 46 92 87 0 34 -137 1924 -144 1999 l-6 51 78 36 c139 65 285
104 472 127 46 5 88 10 92 10 4 0 9 -507 10 -1126 l3 -1126 33 -29 c51 -46
118 -34 147 26 13 29 15 162 15 1146 l0 1112 108 -6 c59 -3 145 -13 192 -22
82 -16 253 -67 276 -82 8 -6 -2 -278 -37 -998 -26 -545 -48 -1025 -49 -1068 0
-74 2 -80 29 -108 18 -17 40 -29 56 -29 36 0 79 24 92 52 6 14 30 442 59 1033
26 556 49 1012 50 1014 2 2 29 -17 61 -42 266 -205 421 -529 464 -972 24 -241
-2 -619 -60 -885 -12 -52 -21 -98 -21 -102 0 -4 437 -8 971 -8 919 0 970 1
965 18 -3 9 -41 133 -85 275 -415 1329 -647 2241 -800 3137 -91 529 -141 931
-176 1410 -20 280 -22 260 19 260 18 0 101 9 183 20 641 85 1134 238 1447 449
88 59 211 160 203 167 -2 2 -93 15 -203 29 -524 67 -875 150 -1095 260 -208
105 -360 267 -514 549 l-47 86 73 168 c532 1233 1036 2267 1346 2761 78 124
218 321 229 321 2 0 140 -92 307 -204 l302 -204 -3 452 c-4 479 6 888 40 1706
14 338 22 691 23 1065 2 532 3 565 24 662 102 486 492 952 1281 1535 132 97
181 148 221 233 44 93 60 169 66 307 10 234 -51 500 -144 625 -336 455 -644
652 -1138 728 -167 25 -508 39 -692 28 -158 -10 -165 -11 -237 -47 -292 -144
-598 -727 -702 -1336 -24 -142 -25 -398 -1 -493 59 -237 215 -340 464 -307
246 32 565 190 839 415 177 146 321 341 312 423 l-3 30 -155 -94 c-606 -371
-1029 -444 -1158 -201 -25 49 -27 60 -27 177 1 114 3 133 33 217 63 183 155
333 293 478 182 190 390 294 588 295 208 0 617 -100 856 -210 205 -95 380
-242 446 -376 31 -63 34 -76 34 -165 0 -92 -2 -99 -40 -175 -100 -199 -397
-412 -806 -580 -479 -196 -798 -473 -994 -864 -95 -189 -169 -400 -330 -930
-85 -281 -194 -490 -398 -762 -321 -427 -856 -953 -1464 -1441 -98 -78 -128
-107 -115 -111 40 -12 353 -96 359 -96 3 0 3 -55 -1 -122 -17 -307 -61 -488
-322 -1326 l-78 -254 -46 7 c-92 13 -256 77 -443 174 -197 101 -292 138 -432
166 -44 9 -80 17 -81 18 -3 5 48 620 71 852 83 839 192 1251 454 1719 85 151
217 356 229 356 5 0 195 -63 422 -140 227 -77 415 -138 418 -135 3 3 -4 15
-15 28 -70 76 -297 456 -485 812 -642 1217 -1699 3660 -2301 5321 -243 670
-271 778 -271 1064 -1 206 13 298 65 448 125 357 418 625 804 737 177 51 252
60 505 59 250 0 329 -9 558 -60 594 -133 1283 -482 1972 -998 96 -72 184 -137
194 -145 26 -20 -83 123 -217 284 -339 406 -705 750 -1063 997 -455 314 -914
501 -1387 563 -149 19 -462 18 -612 -2z m-970 -7235 c352 -54 609 -291 739
-681 26 -81 63 -253 55 -261 -5 -5 -881 -88 -885 -83 -1 1 -16 207 -33 457
-17 250 -33 485 -37 522 l-6 68 48 -6 c27 -3 81 -10 119 -16z m-355 -4 c0 -9
16 -246 35 -526 20 -281 34 -512 33 -514 -8 -7 -609 -57 -615 -50 -16 15 -7
435 11 540 43 254 142 429 287 506 82 43 132 59 197 59 41 1 52 -2 52 -15z
m1184 -1256 c12 -207 -16 -563 -65 -824 l-21 -111 -161 -6 c-89 -4 -260 -10
-379 -13 -210 -7 -218 -6 -218 12 0 10 -14 234 -32 496 -17 263 -30 480 -27
482 4 5 799 83 865 85 l32 1 6 -122z m-1100 0 c7 -35 68 -960 63 -964 -4 -5
-471 -23 -476 -18 -7 7 -63 217 -101 384 -45 200 -104 549 -95 559 5 5 485 55
577 60 21 1 29 -4 32 -21z m4893 -1288 c117 -58 167 -148 167 -300 -1 -77 -28
-240 -40 -240 -7 0 -558 241 -563 246 -15 14 96 201 154 259 83 82 165 92 282
35z m-175 -620 l236 -103 -33 -73 c-32 -71 -149 -280 -166 -298 -14 -15 -499
145 -499 164 0 24 68 286 97 377 l27 81 50 -22 c28 -12 157 -69 288 -126z
m-8407 -222 c104 -54 192 -184 234 -348 20 -81 41 -229 41 -296 0 -49 27 -39
-247 -95 l-198 -40 -37 43 c-74 85 -160 215 -211 315 -46 94 -51 110 -55 186
-4 71 -1 90 17 125 33 64 101 107 216 136 11 3 58 4 105 2 68 -2 95 -8 135
-28z m3676 -90 c2 -13 37 -833 35 -835 -1 -2 -111 -6 -243 -10 l-241 -6 -7
124 c-8 132 4 275 31 367 52 181 167 302 331 347 44 12 92 19 94 13z m344 -47
c134 -60 248 -200 311 -384 28 -82 64 -276 64 -346 l0 -48 -242 -6 c-133 -4
-243 -6 -244 -4 -3 3 -34 703 -34 774 l0 62 53 -15 c28 -9 70 -24 92 -33z
m379 -1038 c-19 -255 -49 -473 -89 -651 l-17 -74 -171 8 c-95 3 -173 7 -173 8
-1 0 -7 127 -13 281 -6 154 -14 326 -18 382 l-6 102 144 4 c79 1 190 4 246 5
l102 2 -5 -67z m-674 5 c0 -29 7 -190 15 -358 8 -168 15 -315 15 -327 0 -23
-2 -23 -135 -23 l-134 0 -15 29 c-48 91 -206 629 -206 698 l0 23 208 3 c114 1
217 3 230 5 20 2 22 -2 22 -50z m2138 -3823 c39 -9 72 -22 72 -28 0 -6 -53
-170 -117 -364 l-117 -352 -51 -5 c-27 -3 -164 -8 -302 -11 l-253 -5 0 32 c0
45 25 186 50 277 69 255 234 435 431 470 70 13 196 7 287 -14z m-2288 -77 c-2
-57 -67 -718 -71 -722 -3 -3 -115 -8 -250 -12 l-246 -7 10 79 c41 355 212 597
465 658 73 18 92 19 92 4z m320 -15 c83 -22 183 -79 239 -134 59 -60 113 -159
136 -254 17 -68 27 -286 14 -299 -3 -4 -135 -9 -293 -13 -242 -5 -286 -4 -286
8 0 8 14 173 32 367 l32 352 36 -6 c19 -3 60 -12 90 -21z m2385 -118 c114
-110 164 -229 172 -402 6 -112 6 -112 -18 -117 -39 -8 -529 -15 -529 -8 0 4
48 150 106 325 l106 317 50 -27 c28 -15 79 -55 113 -88z m-4890 36 c180 -63
275 -260 275 -572 l0 -106 -261 -7 c-144 -4 -263 -6 -265 -3 -2 2 -10 138 -19
303 -8 164 -17 322 -19 351 l-4 52 41 4 c77 8 195 -2 252 -22z m-466 -326 c7
-143 14 -285 18 -316 l5 -56 -238 -6 c-132 -3 -240 -4 -241 -3 -6 5 31 174 51
235 40 114 92 198 175 282 81 80 201 158 212 136 3 -7 11 -129 18 -272z m5485
-452 c-34 -139 -185 -451 -313 -645 -47 -71 -87 -128 -90 -128 -13 0 -382 108
-388 113 -3 3 45 157 107 341 l111 335 152 4 c84 1 214 4 290 5 l137 2 -6 -27z
m-876 -295 c-55 -167 -102 -305 -105 -307 -2 -3 -74 15 -161 40 l-157 44 -7
50 c-4 28 -10 143 -14 257 l-7 207 139 4 c76 1 201 4 276 5 l136 2 -100 -302z
m-1278 249 c0 -37 -64 -260 -113 -397 -41 -113 -106 -267 -151 -360 l-17 -35
-180 9 c-154 8 -179 11 -179 25 1 49 69 753 74 758 3 3 117 9 253 13 136 4
263 7 281 8 27 2 32 -1 32 -21z m-797 -349 c-18 -194 -32 -366 -33 -382 l0
-29 -162 7 c-101 5 -166 12 -170 19 -10 16 -46 213 -64 352 -9 66 -17 176 -17
245 l-2 125 200 5 c110 3 218 7 240 8 l41 2 -33 -352z m-1813 294 c0 -24 -45
-252 -70 -357 -27 -115 -97 -356 -106 -364 -4 -4 -278 -70 -281 -68 -1 1 -9
139 -17 307 -9 168 -19 344 -22 392 l-6 87 158 4 c88 1 201 4 252 5 50 1 92
-2 92 -6z m-690 -39 c0 -16 9 -190 20 -388 11 -198 20 -372 20 -386 0 -25 -5
-26 -175 -67 -97 -24 -180 -40 -185 -37 -13 8 -63 173 -99 325 -36 151 -58
288 -66 395 -3 44 -8 101 -11 127 l-5 47 113 4 c62 1 175 4 251 5 l137 2 0
-27z m20 -1784 c268 -72 448 -295 519 -646 19 -90 44 -304 37 -310 -4 -5 -708
-34 -712 -30 -2 2 -17 205 -33 453 -17 247 -33 475 -36 508 l-6 58 78 -6 c43
-4 112 -16 153 -27z m-386 -495 c19 -274 34 -500 33 -500 -7 -6 -550 -25 -555
-19 -12 12 -6 305 7 400 38 262 146 452 315 555 37 23 158 71 164 65 1 -1 18
-227 36 -501z m942 -746 c-15 -198 -63 -559 -77 -573 -6 -5 -571 -26 -576 -21
-4 4 -52 647 -49 653 1 0 152 8 336 16 184 8 343 15 354 16 17 1 18 -5 12 -91z
m-895 45 c3 -40 46 -648 45 -649 -1 -1 -105 -5 -232 -9 l-230 -7 -32 118 c-34
131 -87 387 -98 477 l-6 57 83 1 c46 1 147 5 224 8 214 11 245 12 246 4z"/>
</g>
</svg>
